<svg xmlns="http://www.w3.org/2000/svg" width="260" height="50" viewBox="0 0 130 25">
    <path fill="#424143" d="M48.3 18.2V7.6h3.5c.5 0 1 .1 1.5.2.3.1.7.2 1 .5.3.2.5.5.7.9s.2.8.2 1.3-.1.9-.4 1.3c-.3.4-.7.7-1.1.9.3.1.6.2.8.4.2.2.4.3.6.6s.3.5.4.7c.1.3.1.6.1.8 0 .5-.1.9-.3 1.3s-.4.7-.7 1c-.3.3-.7.5-1.1.6-.4.1-.9.2-1.4.2h-3.8zm1.4-6.1h2.1c.3 0 .6 0 .8-.1.2-.1.5-.2.6-.3.2-.1.3-.3.4-.5.1-.2.1-.4.1-.7 0-.6-.2-1-.5-1.3s-.9-.4-1.5-.4h-2.1v3.3zm0 1.1V17H52c.3 0 .6 0 .9-.1.3-.1.5-.2.7-.4.2-.2.3-.4.4-.6.1-.2.1-.5.1-.8 0-.3 0-.6-.1-.8-.1-.2-.2-.4-.4-.6-.2-.2-.4-.3-.6-.4-.3-.1-.6-.1-.9-.1h-2.4zM59.1 16.2l1.8-5.9h1.4l-3.2 9.1-.3.6s-.3.4-.5.6c-.2.2-.4.4-.7.5-.3.1-.6.2-.9.2H56v-1.1h.4c.2 0 .4 0 .6-.1s.3-.1.5-.2c.1-.1.3-.2.4-.4l.3-.6.3-.8-2.8-7.8h1.5l1.9 5.9zM71.6 15.4h-4.4l-1 2.8h-1.4l4-10.6H70l4 10.6h-1.4l-1-2.8zm-4-1.1h3.6l-1.8-4.9-1.8 4.9zM74.1 14.2c0-.6.1-1.1.2-1.6s.4-.9.6-1.3c.3-.4.6-.6 1-.8.4-.2.8-.3 1.3-.3s.9.1 1.3.2.7.4.9.7V7h1.3v11.2h-1.2l-.1-.8c-.3.3-.6.6-.9.7-.4.2-.8.3-1.3.3s-.9-.1-1.3-.3c-.4-.2-.7-.5-1-.8-.3-.4-.5-.8-.6-1.3-.1-.5-.2-1-.2-1.6v-.2zm1.4.1c0 .4 0 .8.1 1.1.1.3.2.6.4.9.2.3.4.5.6.6.3.1.6.2.9.2.2 0 .5 0 .6-.1.2-.1.4-.1.5-.2.2-.1.3-.2.4-.4s.2-.3.3-.5v-3.6c-.1-.2-.2-.3-.3-.4l-.4-.4c-.2-.1-.3-.2-.5-.2-.2-.1-.4-.1-.6-.1-.4 0-.7.1-.9.2-.3.2-.5.4-.6.6-.2.3-.3.6-.4.9s-.1.7-.1 1.1v.3zM86.6 16.1c0-.1 0-.3-.1-.4 0-.1-.1-.2-.3-.4-.1-.1-.3-.2-.5-.3-.2-.1-.5-.2-.9-.3l-1.2-.3s-.6-.3-.9-.5l-.6-.6c-.1-.2-.1-.5-.1-.8 0-.3.1-.6.2-.9.1-.3.3-.5.6-.7s.6-.4.9-.5c.4-.1.8-.2 1.2-.2.5 0 .9.1 1.3.2s.7.3.9.5.5.5.6.8.2.6.2 1h-1.4c0-.2 0-.3-.1-.5s-.2-.3-.3-.4c-.1-.1-.3-.2-.5-.3-.2-.1-.4-.1-.7-.1-.3 0-.5 0-.7.1-.2.1-.4.2-.5.3-.1.1-.2.2-.3.4-.1.1-.1.3-.1.4s0 .3.1.4c0 .1.1.2.3.3s.3.2.6.3c.2.1.5.2.9.2.5.1.9.2 1.2.4.4.1.6.3.9.5.2.2.4.4.5.6.1.2.2.5.2.8 0 .3-.1.7-.2.9-.1.3-.3.5-.6.7s-.6.4-1 .5c-.4.1-.8.2-1.2.2-.5 0-1-.1-1.4-.2-.4-.1-.7-.3-1-.6-.3-.2-.5-.5-.6-.8s-.2-.6-.2-.9h1.3c0 .3.1.5.2.7.1.2.3.3.4.5s.4.2.6.2c.2 0 .4.1.6.1.3 0 .5 0 .7-.1.2-.1.4-.1.5-.2.1-.1.2-.2.3-.4.2-.3.2-.5.2-.6zM90.3 18.2H89V7h1.3v11.2zM91.3 14.2c0-.6.1-1.1.2-1.6s.4-.9.7-1.3.7-.6 1.1-.8c.4-.2.9-.3 1.5-.3s1.1.1 1.5.3c.4.2.8.5 1.1.8s.5.8.7 1.3c.2.5.2 1 .2 1.6v.2c0 .6-.1 1.1-.2 1.6-.2.5-.4.9-.7 1.3s-.7.6-1.1.8-.9.3-1.5.3-1-.1-1.5-.3-.8-.5-1.1-.8c-.3-.4-.5-.8-.7-1.3s-.2-1-.2-1.6v-.2zm1.4.1c0 .4 0 .8.1 1.1s.2.7.4.9c.2.3.4.5.7.6.3.2.6.2 1 .2s.7-.1 1-.2c.3-.2.5-.4.7-.6.2-.3.3-.6.4-.9.1-.3.1-.7.1-1.1v-.2c0-.4 0-.8-.1-1.1-.1-.4-.2-.7-.4-.9-.2-.3-.4-.5-.7-.6-.3-.2-.6-.2-1-.2s-.7.1-1 .2c-.3.2-.5.4-.7.6s-.3.6-.4.9c-.1.4-.1.7-.1 1.1v.2zM101.2 8.4v1.9h1.5v1h-1.5v4.9c0 .2 0 .4.1.5 0 .1.1.2.2.3.1.1.2.1.3.1h.7c.1 0 .2 0 .3-.1v1.1c-.1 0-.2.1-.4.1s-.4.1-.6.1c-.2 0-.5 0-.7-.1-.2-.1-.4-.2-.6-.4-.2-.2-.3-.4-.4-.6-.1-.3-.1-.6-.1-1v-4.9h-1.4v-1h1.4V8.4h1.2z"/>
    <path fill="#2BACE2" d="M4.3 7.5l2.4 7.4L9 7.5h3.4v10.6H9.8v-2.5l.2-5.1-2.6 7.6H5.8l-2.6-7.6.2 5.1v2.5H.9V7.5h3.4zM17.2 18.3c-.6 0-1.2-.1-1.7-.3-.5-.2-.9-.5-1.3-.8-.3-.4-.6-.8-.8-1.2-.2-.5-.3-1-.3-1.5v-.3c0-.6.1-1.1.2-1.6.2-.5.4-.9.7-1.3.3-.4.7-.7 1.2-.9.5-.2 1-.3 1.7-.3.6 0 1.1.1 1.5.3.4.2.8.4 1.1.8.3.3.5.7.7 1.2.2.5.2 1 .2 1.6v1h-4.9c.1.4.3.8.6 1 .3.3.7.4 1.2.4.3 0 .7-.1 1-.2.3-.1.6-.3.8-.6l1.1 1.3c-.1.2-.3.3-.5.5s-.4.3-.7.4l-.9.3c-.2.1-.6.2-.9.2zm-.3-6.3c-.2 0-.4 0-.5.1-.2.1-.3.2-.4.3-.1.1-.2.3-.2.5-.1.2-.1.4-.1.6h2.5v-.2c0-.4-.1-.7-.3-.9-.3-.3-.6-.4-1-.4zM21.1 14.1c0-.6.1-1.1.2-1.6s.3-.9.6-1.3.6-.6 1-.8c.4-.2.8-.3 1.3-.3.4 0 .7.1 1 .2.3.1.6.4.8.6v-4h2.5v11.2h-2.2l-.1-.8c-.2.3-.5.5-.8.7-.3.2-.7.3-1.1.3-.5 0-.9-.1-1.3-.3-.4-.2-.7-.5-1-.8-.3-.4-.5-.8-.6-1.3-.1-.5-.2-1-.2-1.6v-.2zm2.5.2c0 .3 0 .6.1.8 0 .3.1.5.2.7.1.2.2.3.4.4.2.1.4.2.6.2.3 0 .5-.1.7-.2.2-.1.3-.3.5-.5v-3c-.2-.5-.6-.7-1.2-.7-.2 0-.4.1-.6.2-.2.1-.3.3-.4.4-.1.2-.2.4-.2.7 0 .3-.1.5-.1.8v.2zM32 18.1h-2.5v-7.9H32v7.9zM37.5 18.1c-.1-.1-.1-.2-.1-.3 0-.1-.1-.2-.1-.4-.2.2-.4.4-.7.6-.3.2-.7.2-1.2.2-.4 0-.7-.1-1-.2-.3-.1-.6-.3-.8-.5-.2-.2-.4-.5-.6-.7-.1-.3-.2-.6-.2-1s.1-.8.2-1.1c.1-.3.4-.6.7-.8.3-.2.7-.4 1.2-.5.5-.1 1-.2 1.7-.2h.8v-.4c0-.3-.1-.6-.2-.8-.1-.2-.4-.3-.7-.3-.3 0-.5.1-.6.2-.2.1-.2.4-.2.6h-2.5c0-.4.1-.7.2-1 .2-.3.4-.6.7-.8.3-.2.7-.4 1.1-.5.4-.1.9-.2 1.4-.2.5 0 .9.1 1.3.2s.7.3 1 .5c.3.2.5.5.7.9.2.4.2.8.2 1.2V16.7s0 .4.1.5c0 .1.1.3.1.4 0 .1.1.2.1.3v.1h-2.6zm-1.6-1.6c.3 0 .6-.1.8-.2.2-.1.3-.3.4-.4v-1.3h-.8c-.2 0-.4 0-.6.1-.2.1-.3.1-.4.3-.1.1-.2.2-.2.4 0 .1-.1.3-.1.4 0 .2.1.4.2.5.3.1.5.2.7.2z"/>
    <circle fill="#2BACE2" cx="30.7" cy="8.1" r="1.2"/>
    <circle fill="#2BACE2" cx="42.1" cy="17" r="1.2"/>
</svg>
